<svg width="21" height="26" viewBox="0 0 21 26" fill="none" xmlns="http://www.w3.org/2000/svg">
<path d="M11.4427 10.1514C11.6214 9.61513 12.3787 9.61513 12.5574 10.1514L13.6056 13.299C13.8363 13.9909 14.225 14.6196 14.7408 15.1352C15.2567 15.6508 15.8856 16.0392 16.5777 16.2695L19.7237 17.3176C20.2599 17.4964 20.2599 18.2536 19.7237 18.4324L16.5761 19.4805C15.8841 19.7112 15.2555 20.0999 14.7398 20.6158C14.2242 21.1317 13.8359 21.7606 13.6056 22.4526L12.5574 25.5986C12.5189 25.7161 12.4443 25.8183 12.3442 25.8908C12.2441 25.9633 12.1236 26.0023 12.0001 26.0023C11.8765 26.0023 11.756 25.9633 11.656 25.8908C11.5559 25.8183 11.4812 25.7161 11.4427 25.5986L10.3946 22.451C10.164 21.7593 9.77557 21.1307 9.25997 20.6151C8.74438 20.0995 8.11581 19.7111 7.42406 19.4805L4.27643 18.4324C4.15901 18.3938 4.05675 18.3192 3.98426 18.2191C3.91177 18.119 3.87273 17.9986 3.87273 17.875C3.87273 17.7514 3.91177 17.631 3.98426 17.5309C4.05675 17.4308 4.15901 17.3562 4.27643 17.3176L7.42406 16.2695C8.11581 16.039 8.74438 15.6505 9.25997 15.1349C9.77557 14.6193 10.164 13.9908 10.3946 13.299L11.4427 10.1514ZM5.16531 1.86551C5.18861 1.79514 5.2335 1.7339 5.29359 1.69049C5.35368 1.64709 5.42593 1.62373 5.50006 1.62373C5.57419 1.62373 5.64643 1.64709 5.70653 1.69049C5.76662 1.7339 5.81151 1.79514 5.83481 1.86551L6.46368 3.75376C6.74481 4.59551 7.40456 5.25526 8.24631 5.53638L10.1346 6.16526C10.2049 6.18856 10.2662 6.23345 10.3096 6.29354C10.353 6.35364 10.3763 6.42588 10.3763 6.50001C10.3763 6.57414 10.353 6.64638 10.3096 6.70648C10.2662 6.76657 10.2049 6.81146 10.1346 6.83476L8.24631 7.46363C7.83116 7.60195 7.45393 7.83505 7.14452 8.14447C6.8351 8.45388 6.602 8.83111 6.46368 9.24626L5.83481 11.1345C5.81151 11.2049 5.76662 11.2661 5.70653 11.3095C5.64643 11.3529 5.57419 11.3763 5.50006 11.3763C5.42593 11.3763 5.35368 11.3529 5.29359 11.3095C5.2335 11.2661 5.18861 11.2049 5.16531 11.1345L4.53643 9.24626C4.39812 8.83111 4.16502 8.45388 3.8556 8.14447C3.54618 7.83505 3.16895 7.60195 2.75381 7.46363L0.865558 6.83476C0.795187 6.81146 0.733948 6.76657 0.690545 6.70648C0.647141 6.64638 0.623779 6.57414 0.623779 6.50001C0.623779 6.42588 0.647141 6.35364 0.690545 6.29354C0.733948 6.23345 0.795187 6.18856 0.865558 6.16526L2.75381 5.53638C3.16895 5.39807 3.54618 5.16497 3.8556 4.85555C4.16502 4.54613 4.39812 4.1689 4.53643 3.75376L5.16531 1.86551ZM16.6524 0.160883C16.6685 0.114613 16.6985 0.0744916 16.7384 0.0460958C16.7783 0.0177 16.8261 0.00244141 16.8751 0.00244141C16.924 0.00244141 16.9718 0.0177 17.0117 0.0460958C17.0516 0.0744916 17.0816 0.114613 17.0977 0.160883L17.5169 1.41863C17.7038 1.98088 18.1442 2.42126 18.7064 2.60813L19.9642 3.02738C20.0105 3.04342 20.0506 3.07348 20.079 3.11338C20.1074 3.15328 20.1226 3.20104 20.1226 3.25001C20.1226 3.29898 20.1074 3.34673 20.079 3.38663C20.0506 3.42653 20.0105 3.45659 19.9642 3.47263L18.7064 3.89188C18.4294 3.98406 18.1776 4.13956 17.9711 4.34604C17.7646 4.55253 17.6091 4.8043 17.5169 5.08138L17.0977 6.33913C17.0816 6.3854 17.0516 6.42553 17.0117 6.45392C16.9718 6.48232 16.924 6.49758 16.8751 6.49758C16.8261 6.49758 16.7783 6.48232 16.7384 6.45392C16.6985 6.42553 16.6685 6.3854 16.6524 6.33913L16.2332 5.08138C16.141 4.8043 15.9855 4.55253 15.779 4.34604C15.5725 4.13956 15.3208 3.98406 15.0437 3.89188L13.7876 3.47263C13.7413 3.45659 13.7012 3.42653 13.6728 3.38663C13.6444 3.34673 13.6291 3.29898 13.6291 3.25001C13.6291 3.20104 13.6444 3.15328 13.6728 3.11338C13.7012 3.07348 13.7413 3.04342 13.7876 3.02738L15.0453 2.60813C15.6076 2.42126 16.0479 1.98088 16.2348 1.41863L16.6524 0.162508V0.160883Z" fill="url(#paint0_linear_3_468)"/>
<defs>
<linearGradient id="paint0_linear_3_468" x1="10.3748" y1="0.00244141" x2="10.3748" y2="26.0023" gradientUnits="userSpaceOnUse">
<stop stop-color="#0AB2EA"/>
<stop offset="1" stop-color="#0489B5"/>
</linearGradient>
</defs>
</svg>
